<svg xmlns="http://www.w3.org/2000/svg" width="51.456" height="46.825" viewBox="0 0 51.456 46.825">
  <g id="checking-attendance" transform="translate(0 -0.706)">
    <g id="Group_135" data-name="Group 135" transform="translate(0 0.706)">
      <path id="Path_45" data-name="Path 45" d="M3.2,15.147a2.729,2.729,0,0,0,.682,1.485c.662,4.414,4.351,8.509,7.726,8.509,3.932,0,7.512-4.433,8.2-8.5a2.694,2.694,0,0,0,.7-1.5c.223-.826.512-2.263.007-2.938a1.226,1.226,0,0,0-.082-.1c.475-1.735,1.076-5.322-1.072-7.765a7.938,7.938,0,0,0-3.971-2.443l-1.23-.423A19.657,19.657,0,0,0,10.8.709a.864.864,0,0,0-.275.023,1.384,1.384,0,0,1-.5.059,3.412,3.412,0,0,0-1.341.23c-.167.069-4.092,1.64-5.283,5.3-.111.3-.587,1.849.046,5.66a1.091,1.091,0,0,0-.252.239C2.682,12.884,2.97,14.32,3.2,15.147Z" transform="translate(6.628 -0.706)" fill="#046666"/>
      <path id="Path_46" data-name="Path 46" d="M25.525,27.519c-.725-.407-1.512-.8-2.351-1.167-.407-.18-.82-.351-1.23-.512-.321-.121-.7-.279-.967-.348l-3.889-1.049L24.364,9.629,27.482,11.6c.659.413,1.144.764,1.676,1.154l.111.082q.792.585,1.554,1.2A38.7,38.7,0,0,1,33.814,16.7c.069.069.134.131.2.2.3-.338.6-.639.9-.964a12.778,12.778,0,0,0-1.407-3.017,6.235,6.235,0,0,0-2.7-1.82s-.161-.049-.407-.131a30.548,30.548,0,0,0-3.292-1.3c-.344-.125-.646-.246-.918-.364-1.148-.567-2.1-1.207-2.3-1.81,0,0,.662,6.411-4.942,6.562l-.78-.036c-5.079-.453-5.417-6.539-5.417-6.539-.531,1.669-6.919,3.61-6.919,3.61a6.25,6.25,0,0,0-2.7,1.823C.331,17.082,0,26.349,0,26.349c.036,2.118.951,2.338.951,2.338,6.457,2.882,16.586,3.391,16.586,3.391.548.013,1.056-.016,1.564-.046l.013.052A70.447,70.447,0,0,0,29.243,30.7l-.633-.83A10.807,10.807,0,0,0,25.525,27.519Z" transform="translate(0 14.741)" fill="#046666"/>
      <path id="Path_47" data-name="Path 47" d="M7.222,7.824c.069-.089.144-.177.216-.275a.638.638,0,0,1-.02-.089C7.356,7.588,7.284,7.7,7.222,7.824Z" transform="translate(16.46 14.686)" fill="#046666"/>
      <path id="Path_48" data-name="Path 48" d="M3.921,7.529,3.9,7.46l-.013.072c0-.013.016-.026.02-.039A.1.1,0,0,1,3.921,7.529Z" transform="translate(8.868 14.686)" fill="#046666"/>
      <path id="Path_49" data-name="Path 49" d="M30.34,10.51a47.287,47.287,0,0,0-5.188,4.312c-1.636,1.554-3.187,3.191-4.679,4.879-.554.63-1.092,1.266-1.626,1.905a.133.133,0,0,1-.016-.03A25.726,25.726,0,0,0,16.3,18.717c-.885-.872-1.8-1.679-2.748-2.446-.475-.38-.954-.754-1.443-1.121-.508-.367-.954-.7-1.577-1.092L6.661,21.944c.354.1.869.3,1.305.466.462.177.915.367,1.367.567.905.4,1.787.836,2.63,1.305a13.806,13.806,0,0,1,4.1,3.223l2.981,3.909L20.761,27.7c.862-1.863,1.9-3.81,2.954-5.666s2.21-3.7,3.446-5.47a44.639,44.639,0,0,1,4.043-5.05,19.974,19.974,0,0,1,5.07-4.053A20.983,20.983,0,0,0,30.34,10.51Z" transform="translate(15.181 14.679)" fill="#046666"/>
    </g>
  </g>
</svg>
