<svg id="discussion" xmlns="http://www.w3.org/2000/svg" width="48.603" height="48.603" viewBox="0 0 48.603 48.603">
  <g id="Group_99" data-name="Group 99" transform="translate(0 22.972)">
    <g id="Group_98" data-name="Group 98">
      <path id="Path_40" data-name="Path 40" d="M44.106,257.295a5.7,5.7,0,1,0-8.273.011,8.6,8.6,0,0,0-2.425,2,10.032,10.032,0,0,0-4.487-4.781,7.12,7.12,0,1,0-9.242,0,10.031,10.031,0,0,0-4.487,4.781,8.605,8.605,0,0,0-2.425-2,5.7,5.7,0,1,0-8.273-.011A8.54,8.54,0,0,0,0,264.782v1.424a1.424,1.424,0,0,0,1.424,1.424H47.179a1.424,1.424,0,0,0,1.424-1.424v-1.424A8.541,8.541,0,0,0,44.106,257.295ZM8.638,250.543a2.848,2.848,0,1,1-2.848,2.848A2.851,2.851,0,0,1,8.638,250.543ZM2.848,264.782a5.743,5.743,0,0,1,11.486,0ZM24.3,244.848a4.272,4.272,0,1,1-4.272,4.272A4.277,4.277,0,0,1,24.3,244.848Zm7.12,19.935H17.182v-1.424a7.12,7.12,0,0,1,14.239,0Zm8.543-14.239a2.848,2.848,0,1,1-2.848,2.848A2.851,2.851,0,0,1,39.964,250.543Zm-5.7,14.239a5.743,5.743,0,0,1,11.486,0Z" transform="translate(0 -242)" fill="#046666"/>
    </g>
  </g>
  <g id="Group_101" data-name="Group 101" transform="translate(11.486 5.696)">
    <g id="Group_100" data-name="Group 100">
      <path id="Path_41" data-name="Path 41" d="M145.206,60H122.424a1.424,1.424,0,0,0,0,2.848h22.782a1.424,1.424,0,1,0,0-2.848Z" transform="translate(-121 -60)" fill="#046666"/>
    </g>
  </g>
  <g id="Group_103" data-name="Group 103" transform="translate(2.943)">
    <g id="Group_102" data-name="Group 102">
      <path id="Path_42" data-name="Path 42" d="M66.6,0H38.12A7.12,7.12,0,0,0,36.7,14.1v4.6a1.424,1.424,0,0,0,2.447.99l5.276-5.452h3.367l3.376,5.234a1.424,1.424,0,0,0,2.393,0l3.376-5.234H60.3l5.276,5.452a1.424,1.424,0,0,0,2.447-.99V14.1A7.12,7.12,0,0,0,66.6,0Zm0,11.391a1.424,1.424,0,0,0-1.424,1.424v2.367l-3.249-3.357a1.424,1.424,0,0,0-1.023-.434H56.156a1.424,1.424,0,0,0-1.2.652l-2.6,4.031-2.6-4.031a1.424,1.424,0,0,0-1.2-.652H43.815a1.424,1.424,0,0,0-1.023.434l-3.248,3.357V12.815a1.424,1.424,0,0,0-1.424-1.424,4.272,4.272,0,1,1,0-8.543H66.6a4.272,4.272,0,1,1,0,8.543Z" transform="translate(-31)" fill="#046666"/>
    </g>
  </g>
</svg>
