<svg id="link" xmlns="http://www.w3.org/2000/svg" width="45.556" height="45.556" viewBox="0 0 45.556 45.556">
  <path id="Path_27" data-name="Path 27" d="M214.506,0A10.83,10.83,0,0,0,206.8,3.193l-8.489,8.489a12.882,12.882,0,0,1,7.228.825l5.288-5.288a5.206,5.206,0,1,1,7.363,7.363L208.669,24.1a5.333,5.333,0,0,1-7.363,0l-4.023,4.029a10.9,10.9,0,0,0,15.413,0l9.518-9.518A10.9,10.9,0,0,0,214.506,0Z" transform="translate(-179.85 0)" fill="#046666"/>
  <path id="Path_28" data-name="Path 28" d="M19.82,181.057l-5.238,5.238a5.206,5.206,0,1,1-7.363-7.363l9.518-9.518a5.333,5.333,0,0,1,7.363,0l4.023-4.029a11.164,11.164,0,0,0-15.413,0l-9.518,9.518a10.9,10.9,0,1,0,15.415,15.415l8.376-8.376a13.8,13.8,0,0,1-1.848.181,13.719,13.719,0,0,1-5.317-1.068Z" transform="translate(0 -147.958)" fill="#046666"/>
</svg>
