<svg xmlns="http://www.w3.org/2000/svg" width="36.021" height="45.5" viewBox="0 0 36.021 45.5">
  <g id="notes" transform="translate(-2)">
    <path id="Path_29" data-name="Path 29" d="M7.646,10.427a1.9,1.9,0,0,1-1.9-1.9V1.9a1.9,1.9,0,1,1,3.792,0V8.531A1.9,1.9,0,0,1,7.646,10.427Z" transform="translate(3.359)" fill="#046666"/>
    <path id="Path_30" data-name="Path 30" d="M12.4,10.427a1.9,1.9,0,0,1-1.9-1.9V1.9a1.9,1.9,0,1,1,3.792,0V8.531A1.9,1.9,0,0,1,12.4,10.427Z" transform="translate(7.615)" fill="#046666"/>
    <path id="Path_31" data-name="Path 31" d="M17.146,10.427a1.9,1.9,0,0,1-1.9-1.9V1.9a1.9,1.9,0,0,1,3.792,0V8.531A1.9,1.9,0,0,1,17.146,10.427Z" transform="translate(11.87)" fill="#046666"/>
    <path id="Path_32" data-name="Path 32" d="M32.807,2.25H7.214A5.218,5.218,0,0,0,2,7.464V38.271a5.218,5.218,0,0,0,5.214,5.214H32.807a5.218,5.218,0,0,0,5.214-5.214V7.464A5.218,5.218,0,0,0,32.807,2.25Zm-21.328,10.9h9.479a1.9,1.9,0,1,1,0,3.792H11.479a1.9,1.9,0,0,1,0-3.792ZM30.437,32.109H11.479a1.9,1.9,0,1,1,0-3.792H30.437a1.9,1.9,0,1,1,0,3.792Zm0-7.583H11.479a1.9,1.9,0,1,1,0-3.792H30.437a1.9,1.9,0,1,1,0,3.792Z" transform="translate(0 2.016)" fill="#046666"/>
  </g>
</svg>
