<svg id="puzzle-piece" xmlns="http://www.w3.org/2000/svg" width="41.503" height="41.503" viewBox="0 0 41.503 41.503">
  <path id="Path_35" data-name="Path 35" d="M245.864,0V6.161h-2.432a2.432,2.432,0,0,0,0,4.864h2.432V17.1h7.3V13.456a1.216,1.216,0,0,1,2.432,0V17.1h7.376V0Z" transform="translate(-221.464)" fill="#046666"/>
  <path id="Path_36" data-name="Path 36" d="M5.512,109.239a2.432,2.432,0,1,0,4.864,0v-2.432h5.512v-6.08H13.456a1.216,1.216,0,1,1,0-2.432h2.432V91H0v15.807H5.512Z" transform="translate(0 -83.624)" fill="#046666"/>
  <path id="Path_37" data-name="Path 37" d="M236.376,260.864v-2.432a2.432,2.432,0,1,0-4.864,0v2.432H226v3.08a4.864,4.864,0,1,1,0,9.727v3.08h15.807V260.864Z" transform="translate(-207.68 -235.249)" fill="#046666"/>
  <path id="Path_38" data-name="Path 38" d="M18.32,326.376a2.432,2.432,0,1,0,0-4.864H15.888V316h-3.08a4.864,4.864,0,1,1-9.727,0H0v15.888H15.888v-5.512Z" transform="translate(0 -290.385)" fill="#046666"/>
</svg>
