<svg id="Capa_1" enable-background="new 0 0 512 512" height="512" viewBox="0 0 512 512" width="512" xmlns="http://www.w3.org/2000/svg"><g><path d="m432.292 286.859h-66.011v-239.979h9.51c4.643 0 8.42 3.777 8.42 8.42v204.074c0 4.142 3.358 7.5 7.5 7.5s7.5-3.358 7.5-7.5v-204.074c0-12.914-10.506-23.42-23.42-23.42h-9.51v-8.46c0-12.914-10.506-23.42-23.42-23.42h-185.678c-4.142 0-7.5 3.358-7.5 7.5s3.358 7.5 7.5 7.5h185.678c4.643 0 8.42 3.777 8.42 8.42v263.439h-45.715c-27.133 0-49.208 22.074-49.208 49.208v70.763h-202.437c-4.643 0-8.42-3.777-8.42-8.42v-299.442h60.692c12.913 0 23.417-10.505 23.417-23.417v-68.051c0-3.032-1.826-5.766-4.627-6.928-2.8-1.161-6.026-.522-8.172 1.62l-84.107 83.968c-.884 1.332-1.866 1.403-2.203 5.31v306.94c0 12.914 10.506 23.42 23.42 23.42h9.52v8.46c0 12.914 10.502 23.42 23.41 23.42h169.507v9.083c0 27.133 22.074 49.207 49.208 49.207h126.726c27.133 0 49.207-22.074 49.207-49.207v-126.726c0-27.133-22.074-49.208-49.207-49.208zm-317.681-261.274v49.965c0 4.642-3.776 8.417-8.417 8.417h-50.064zm-27.76 413.125c-4.637 0-8.41-3.777-8.41-8.42v-8.46h177.917v16.88zm379.648 24.083c0 18.862-15.345 34.207-34.207 34.207h-126.726c-18.862 0-34.208-15.345-34.208-34.207 0 0 0-48.495 0-48.511v-78.215c0-18.862 15.345-34.208 34.208-34.208h126.726c18.862 0 34.207 15.345 34.207 34.208z"/><path d="m389.663 332.396c-9.532-12.615-31.004-13.34-41.469 0l-37.577 46.827c-13.439 15.222-.615 41.874 19.708 41.069h6.997v39.092c0 9.387 7.637 17.024 17.025 17.024h29.164c9.387 0 17.024-7.637 17.024-17.024v-39.092h6.996c20.106 1.134 33.072-25.659 19.71-41.068zm27.039 67.08c-.417 1.086-3.363 5.733-9.071 5.817h-14.595c-4.142 0-7.5 3.358-7.5 7.5v46.592c0 1.116-.908 2.024-2.024 2.024h-29.164c-1.117 0-2.025-.908-2.025-2.024v-46.592c0-4.142-3.358-7.5-7.5-7.5h-14.595c-9.574-.909-12.461-9.326-7.968-16.61l37.634-46.898c3.688-4.57 12.685-6.477 18.07 0l37.634 46.898c2.13 2.437 2.854 7.094 1.104 10.793z"/><path d="m246 92.071c13.172 0 23.888-10.716 23.888-23.922 0-13.172-10.716-23.888-23.888-23.888h-70.428c-13.172 0-23.888 10.716-23.888 23.922 0 13.172 10.716 23.888 23.888 23.888zm-79.317-23.923c0-4.901 3.987-8.888 8.888-8.888h70.429c4.901 0 8.888 3.987 8.888 8.922 0 4.901-3.987 8.888-8.888 8.888h-70.428c-4.902.001-8.889-3.987-8.889-8.922z"/><path d="m87.137 148.076c0 4.142 3.358 7.5 7.5 7.5h207.834c4.142 0 7.5-3.358 7.5-7.5s-3.358-7.5-7.5-7.5h-207.834c-4.142 0-7.5 3.358-7.5 7.5z"/><path d="m302.471 185.049h-207.834c-4.142 0-7.5 3.358-7.5 7.5s3.358 7.5 7.5 7.5h207.834c4.142 0 7.5-3.358 7.5-7.5s-3.358-7.5-7.5-7.5z"/><path d="m302.471 229.521h-38.811c-4.142 0-7.5 3.358-7.5 7.5s3.358 7.5 7.5 7.5h38.811c4.142 0 7.5-3.358 7.5-7.5s-3.358-7.5-7.5-7.5z"/><path d="m235.955 237.021c0-4.142-3.358-7.5-7.5-7.5h-133.818c-4.142 0-7.5 3.358-7.5 7.5s3.358 7.5 7.5 7.5h133.818c4.142 0 7.5-3.358 7.5-7.5z"/><path d="m185.262 273.994h-90.625c-4.142 0-7.5 3.358-7.5 7.5s3.358 7.5 7.5 7.5h90.625c4.142 0 7.5-3.358 7.5-7.5s-3.358-7.5-7.5-7.5z"/><path d="m185.262 318.466h-90.625c-4.142 0-7.5 3.358-7.5 7.5s3.358 7.5 7.5 7.5h90.625c4.142 0 7.5-3.358 7.5-7.5s-3.358-7.5-7.5-7.5z"/></g></svg>