<svg xmlns="http://www.w3.org/2000/svg" width="112.907" height="97.06" viewBox="0 0 112.907 97.06">
  <g id="cloud-computing" transform="translate(0 -35.93)">
    <g id="Group_137" data-name="Group 137" transform="translate(32.731 72.402)">
      <g id="Group_136" data-name="Group 136">
        <path id="Path_51" data-name="Path 51" d="M172.258,201.322l-23.832,23.832,6.225,6.225,13.205-13.205V261.91h8.8V218.174l13.205,13.205,6.225-6.225Z" transform="translate(-148.426 -201.322)" fill="#fff"/>
      </g>
    </g>
    <g id="Group_139" data-name="Group 139" transform="translate(0 35.93)">
      <g id="Group_138" data-name="Group 138" transform="translate(0 0)">
        <path id="Path_52" data-name="Path 52" d="M91.765,70.607a35.659,35.659,0,0,0-70.588-6.123,26.853,26.853,0,0,0,5.674,53.1h4.622v-8.8H26.826a18.048,18.048,0,0,1-1.439-36.036l3.654-.292.374-3.646a26.852,26.852,0,0,1,53.56,2.778v7.7h6.383a14.746,14.746,0,0,1,0,29.492l-7.7,0v8.8h7.56l.143,0a23.55,23.55,0,0,0,2.408-46.977Z" transform="translate(0 -35.93)" fill="#fff"/>
      </g>
    </g>
  </g>
</svg>
